<svg width="50" height="50" viewBox="0 0 50 50" fill="none" xmlns="http://www.w3.org/2000/svg">
<ellipse opacity="0.1" cx="25" cy="25.102" rx="25" ry="24.538" fill="#212353"/>
<path d="M25.0018 21.6981C22.7316 21.6981 20.9005 23.4359 20.9005 25.5903C20.9005 27.7448 22.7316 29.4826 25.0018 29.4826C27.2719 29.4826 29.1031 27.7448 29.1031 25.5903C29.1031 23.4359 27.2719 21.6981 25.0018 21.6981ZM25.0018 28.1208C23.5347 28.1208 22.3354 26.986 22.3354 25.5903C22.3354 24.1947 23.5312 23.0599 25.0018 23.0599C26.4724 23.0599 27.6682 24.1947 27.6682 25.5903C27.6682 26.986 26.4688 28.1208 25.0018 28.1208ZM30.2274 21.5389C30.2274 22.0436 29.7991 22.4467 29.2708 22.4467C28.739 22.4467 28.3142 22.0402 28.3142 21.5389C28.3142 21.0375 28.7426 20.631 29.2708 20.631C29.7991 20.631 30.2274 21.0375 30.2274 21.5389ZM32.9438 22.4603C32.8831 21.2441 32.5904 20.1669 31.6516 19.2794C30.7165 18.3919 29.5814 18.1141 28.2999 18.0531C26.9793 17.982 23.0207 17.982 21.7001 18.0531C20.4222 18.1107 19.2871 18.3885 18.3484 19.276C17.4096 20.1635 17.1205 21.2408 17.0562 22.4569C16.9813 23.7103 16.9813 27.467 17.0562 28.7204C17.1169 29.9365 17.4096 31.0137 18.3484 31.9013C19.2871 32.7888 20.4186 33.0666 21.7001 33.1276C23.0207 33.1987 26.9793 33.1987 28.2999 33.1276C29.5814 33.07 30.7165 32.7922 31.6516 31.9013C32.5868 31.0137 32.8795 29.9365 32.9438 28.7204C33.0187 27.467 33.0187 23.7136 32.9438 22.4603ZM31.2376 30.0652C30.9592 30.7292 30.4202 31.2407 29.717 31.5083C28.664 31.9047 26.1654 31.8132 25.0018 31.8132C23.8381 31.8132 21.336 31.9013 20.2866 31.5083C19.5869 31.2441 19.048 30.7326 18.766 30.0652C18.3484 29.0659 18.4447 26.6947 18.4447 25.5903C18.4447 24.486 18.3519 22.1114 18.766 21.1154C19.0444 20.4515 19.5834 19.94 20.2866 19.6723C21.3395 19.276 23.8381 19.3675 25.0018 19.3675C26.1654 19.3675 28.6676 19.2794 29.717 19.6723C30.4166 19.9366 30.9556 20.4481 31.2376 21.1154C31.6552 22.1147 31.5588 24.486 31.5588 25.5903C31.5588 26.6947 31.6552 29.0693 31.2376 30.0652Z" fill="white"/>
</svg>
