<svg width="50" height="50" viewBox="0 0 50 50" fill="none" xmlns="http://www.w3.org/2000/svg">
<ellipse opacity="0.1" cx="25" cy="25.102" rx="25" ry="24.538" fill="#212353"/>
<path fill-rule="evenodd" clip-rule="evenodd" d="M24.9096 22.4879L24.8699 21.8696C24.7511 20.2672 25.7939 18.8035 27.4438 18.2358C28.051 18.0339 29.0805 18.0086 29.7537 18.1853C30.0177 18.261 30.5193 18.5133 30.8756 18.7404L31.5224 19.1568L32.2352 18.9424C32.6312 18.8287 33.1592 18.6395 33.3967 18.5133C33.6211 18.3998 33.8191 18.3366 33.8191 18.3745C33.8191 18.589 33.3307 19.3209 32.9216 19.7246C32.3672 20.2924 32.5256 20.3429 33.6475 19.9643C34.3207 19.7498 34.3338 19.7498 34.2019 19.9896C34.1226 20.1157 33.7135 20.5574 33.2779 20.9611C32.5387 21.6551 32.4992 21.7308 32.4992 22.3112C32.4992 23.2071 32.0504 25.0745 31.6016 26.0965C30.77 28.0144 28.9881 29.9953 27.2062 30.9921C24.6984 32.3927 21.3589 32.746 18.5475 31.9259C17.6103 31.6483 16 30.9417 16 30.8155C16 30.7776 16.4883 30.7272 17.0824 30.7146C18.3231 30.6894 19.5638 30.3613 20.6197 29.7809L21.3326 29.3771L20.5142 29.1122C19.3526 28.7336 18.3099 27.863 18.0459 27.0428C17.9667 26.7779 17.9931 26.7652 18.7323 26.7652L19.4978 26.7526L18.8511 26.4624C18.0855 26.0965 17.3859 25.4782 17.0427 24.8473C16.7919 24.3931 16.4752 23.2449 16.5676 23.1566C16.5939 23.1188 16.8712 23.1944 17.188 23.2954C18.0987 23.6108 18.2175 23.5351 17.6895 23.0052C16.6995 22.0463 16.396 20.6204 16.8712 19.2704L17.0956 18.6647L17.9667 19.4849C19.7486 21.1378 21.8473 22.122 24.2496 22.4122L24.9096 22.4879Z" fill="white"/>
</svg>
